<svg xmlns="http://www.w3.org/2000/svg" version="1.1" xmlns:xlink="http://www.w3.org/1999/xlink" xmlns:svgjs="http://svgjs.dev/svgjs" width="1440" height="250" preserveAspectRatio="none" viewBox="0 0 1440 250"><g mask="url(&quot;#SvgjsMask1006&quot;)" fill="none"><path d="M23 250L273 0L517.5 0L267.5 250z" fill="url(&quot;#SvgjsLinearGradient1007&quot;)"></path><path d="M243.60000000000002 250L493.6 0L634.6 0L384.6 250z" fill="url(&quot;#SvgjsLinearGradient1007&quot;)"></path><path d="M494.20000000000005 250L744.2 0L966.2 0L716.2 250z" fill="url(&quot;#SvgjsLinearGradient1007&quot;)"></path><path d="M751.8000000000001 250L1001.8000000000001 0L1075.3000000000002 0L825.3000000000001 250z" fill="url(&quot;#SvgjsLinearGradient1007&quot;)"></path><path d="M1410 250L1160 0L1113.5 0L1363.5 250z" fill="url(&quot;#SvgjsLinearGradient1008&quot;)"></path><path d="M1177.4 250L927.4000000000001 0L832.9000000000001 0L1082.9 250z" fill="url(&quot;#SvgjsLinearGradient1008&quot;)"></path><path d="M923.8 250L673.8 0L595.8 0L845.8 250z" fill="url(&quot;#SvgjsLinearGradient1008&quot;)"></path><path d="M683.1999999999999 250L433.19999999999993 0L247.19999999999993 0L497.19999999999993 250z" fill="url(&quot;#SvgjsLinearGradient1008&quot;)"></path><path d="M1311.5548126618805 250L1440 121.55481266188056L1440 250z" fill="url(&quot;#SvgjsLinearGradient1007&quot;)"></path><path d="M0 250L128.44518733811944 250L 0 121.55481266188056z" fill="url(&quot;#SvgjsLinearGradient1008&quot;)"></path></g><defs><mask id="SvgjsMask1006"><rect width="1440" height="250" fill="#ffffff"></rect></mask><linearGradient x1="0%" y1="100%" x2="100%" y2="0%" id="SvgjsLinearGradient1007"><stop stop-color="rgba(115, 184, 227, 0.07)" offset="0"></stop><stop stop-opacity="0" stop-color="rgba(115, 184, 227, 0.07)" offset="0.66"></stop></linearGradient><linearGradient x1="100%" y1="100%" x2="0%" y2="0%" id="SvgjsLinearGradient1008"><stop stop-color="rgba(115, 184, 227, 0.07)" offset="0"></stop><stop stop-opacity="0" stop-color="rgba(115, 184, 227, 0.07)" offset="0.66"></stop></linearGradient></defs></svg>